<svg width="200" height="200" viewBox="0 0 200 200" fill="none" xmlns="http://www.w3.org/2000/svg">
<path d="M200 100C200 155.228 155.228 200 100 200C44.7715 200 0 155.228 0 100C0 44.7715 44.7715 0 100 0C155.228 0 200 44.7715 200 100Z" fill="black"/>
<path d="M100 1.5C154.4 1.5 198.5 45.6 198.5 100C198.5 154.4 154.4 198.5 100 198.5C45.6 198.5 1.5 154.4 1.5 100C1.5 45.6 45.6 1.5 100 1.5Z" stroke="white" stroke-width="3"/>
<path d="M95.5391 88.0078H78.4297C78.1172 85.7943 77.4792 83.8281 76.5156 82.1094C75.5521 80.3646 74.3151 78.8802 72.8047 77.6562C71.2943 76.4323 69.5495 75.4948 67.5703 74.8437C65.6172 74.1927 63.4948 73.8672 61.2031 73.8672C57.0625 73.8672 53.4557 74.8958 50.3828 76.9531C47.3099 78.9844 44.9271 81.9531 43.2344 85.8594C41.5417 89.7396 40.6953 94.4531 40.6953 100C40.6953 105.703 41.5417 110.495 43.2344 114.375C44.9531 118.255 47.349 121.185 50.4219 123.164C53.4948 125.143 57.0495 126.133 61.0859 126.133C63.3516 126.133 65.4479 125.833 67.375 125.234C69.3281 124.635 71.0599 123.763 72.5703 122.617C74.0807 121.445 75.3307 120.026 76.3203 118.359C77.3359 116.693 78.0391 114.792 78.4297 112.656L95.5391 112.734C95.0964 116.406 93.9896 119.948 92.2188 123.359C90.474 126.745 88.1172 129.779 85.1484 132.461C82.2057 135.117 78.6901 137.227 74.6016 138.789C70.5391 140.326 65.9427 141.094 60.8125 141.094C53.6771 141.094 47.2969 139.479 41.6719 136.25C36.0729 133.021 31.6458 128.346 28.3906 122.227C25.1615 116.107 23.5469 108.698 23.5469 100C23.5469 91.276 25.1875 83.8542 28.4688 77.7344C31.75 71.6146 36.2031 66.9531 41.8281 63.75C47.4531 60.5208 53.7813 58.9062 60.8125 58.9062C65.4479 58.9062 69.7448 59.5573 73.7031 60.8594C77.6875 62.1615 81.2161 64.0625 84.2891 66.5625C87.362 69.0365 89.862 72.0703 91.7891 75.6641C93.7422 79.2578 94.9922 83.3724 95.5391 88.0078ZM122.121 60L141.457 120.781H142.199L161.574 60H180.324L152.746 140H130.949L103.332 60H122.121Z" fill="white"/>
</svg>
