<svg width="356" height="356" viewBox="0 0 356 356" fill="none" xmlns="http://www.w3.org/2000/svg">
<path d="M118.4 287C129.85 287 138.325 284.275 143.825 278.825C149.275 273.325 152 264.85 152 253.4V218.9C152 207.35 149.275 198.85 143.825 193.4C138.375 187.9 129.95 185.2 118.55 185.3H100.4C91 185.3 83.825 187.25 78.875 191.15C73.925 195 71.05 201.1 70.25 209.45C69.95 211.55 70.35 213.15 71.45 214.25C72.55 215.35 74.15 215.9 76.25 215.9C80.05 215.9 82.25 213.8 82.85 209.6C83.35 205 84.95 201.9 87.65 200.3C90.3 198.7 94.55 197.9 100.4 197.9H118.55C123.85 197.85 128.025 198.45 131.075 199.7C134.075 200.95 136.225 203.125 137.525 206.225C138.775 209.275 139.4 213.5 139.4 218.9V253.4C139.4 258.75 138.775 262.95 137.525 266C136.225 269.05 134.05 271.225 131 272.525C127.95 273.775 123.75 274.4 118.4 274.4H100.4C94.55 274.4 90.3 273.6 87.65 272C84.95 270.35 83.35 267.25 82.85 262.7C82.25 258.5 80.05 256.4 76.25 256.4C74.15 256.4 72.55 256.95 71.45 258.05C70.35 259.15 69.95 260.75 70.25 262.85C71.05 271.25 73.925 277.375 78.875 281.225C83.825 285.075 91 287 100.4 287H118.4Z" fill="white"/>
<path d="M237.6 287C226.15 287 217.675 284.275 212.175 278.825C206.725 273.325 204 264.85 204 253.4V218.9C204 207.35 206.725 198.85 212.175 193.4C217.625 187.9 226.05 185.2 237.45 185.3H255.6C265 185.3 272.175 187.25 277.125 191.15C282.075 195 284.95 201.1 285.75 209.45C286.05 211.55 285.65 213.15 284.55 214.25C283.45 215.35 281.85 215.9 279.75 215.9C275.95 215.9 273.75 213.8 273.15 209.6C272.65 205 271.05 201.9 268.35 200.3C265.7 198.7 261.45 197.9 255.6 197.9H237.45C232.15 197.85 227.975 198.45 224.925 199.7C221.925 200.95 219.775 203.125 218.475 206.225C217.225 209.275 216.6 213.5 216.6 218.9V253.4C216.6 258.75 217.225 262.95 218.475 266C219.775 269.05 221.95 271.225 225 272.525C228.05 273.775 232.25 274.4 237.6 274.4H255.6C261.45 274.4 265.7 273.6 268.35 272C271.05 270.35 272.65 267.25 273.15 262.7C273.75 258.5 275.95 256.4 279.75 256.4C281.85 256.4 283.45 256.95 284.55 258.05C285.65 259.15 286.05 260.75 285.75 262.85C284.95 271.25 282.075 277.375 277.125 281.225C272.175 285.075 265 287 255.6 287H237.6Z" fill="white"/>
<path d="M36 166C136.724 142.88 197.76 141.135 318 166" stroke="white" stroke-width="26" stroke-linecap="round"/>
<path d="M178.027 153.5L178.027 321" stroke="white" stroke-width="26" stroke-linecap="round"/>
<circle cx="178" cy="178" r="169.5" stroke="white" stroke-width="17"/>
</svg>
