<svg width="356" height="356" viewBox="0 0 356 356" fill="none" xmlns="http://www.w3.org/2000/svg">
<path d="M272.942 195H225.942C219.775 195.667 207.242 200.4 206.442 214C205.642 227.6 206.108 250.333 206.442 260C206.942 266 210.442 278.5 220.442 280.5C230.442 282.5 259.608 282.667 272.942 282.5" stroke="white" stroke-width="15"/>
<path d="M83.5 195H130.5C136.667 195.667 149.2 200.4 150 214C150.8 227.6 150.333 250.333 150 260C149.5 266 146 278.5 136 280.5C126 282.5 96.8333 282.667 83.5 282.5" stroke="white" stroke-width="15"/>
<path d="M36 166C136.724 142.88 197.76 141.135 318 166" stroke="white" stroke-width="26" stroke-linecap="round"/>
<path d="M178.027 153.5L178.027 321" stroke="white" stroke-width="26" stroke-linecap="round"/>
<circle cx="178" cy="178" r="169.5" stroke="white" stroke-width="17"/>
</svg>
