<svg width="624" height="606" viewBox="0 0 624 606" fill="none" xmlns="http://www.w3.org/2000/svg">
<path d="M158.5 339.5L51 358C62.1667 411.667 114.7 525.6 235.5 552C241.5 422 186.667 356.167 158.5 339.5Z" stroke="white" stroke-width="15"/>
<path d="M450.455 338.5L557.955 357C546.788 410.667 494.255 524.6 373.455 551C367.455 421 422.288 355.167 450.455 338.5Z" stroke="white" stroke-width="15"/>
<path d="M556 250.5C384.8 202.1 147.333 230.333 50 250.5C60.5 186.833 132 45.5001 291.5 45.5001C362.333 40.8334 514.4 75.3001 556 250.5Z" stroke="white" stroke-width="15"/>
<circle cx="303" cy="303" r="295.5" stroke="white" stroke-width="15"/>
<path d="M307.075 413C303.925 413 301.563 412.212 299.987 410.637C298.413 409.062 297.625 406.7 297.625 403.55V279.575H253.975C250.825 279.575 248.463 278.787 246.888 277.212C245.313 275.637 244.525 273.275 244.525 270.125C244.525 266.975 245.313 264.612 246.888 263.037C248.463 261.462 250.825 260.675 253.975 260.675H360.175C363.325 260.675 365.688 261.462 367.263 263.037C368.838 264.612 369.625 266.975 369.625 270.125C369.625 273.275 368.838 275.637 367.263 277.212C365.688 278.787 363.325 279.575 360.175 279.575H316.525V403.55C316.525 406.55 315.7 408.875 314.05 410.525C312.475 412.175 310.15 413 307.075 413Z" fill="white"/>
<path d="M222.688 383C219.104 383 217.312 381.208 217.312 377.624V301.592C217.312 298.008 219.104 296.216 222.688 296.216H253.536C264.672 296.216 272.864 298.861 278.112 304.152C283.403 309.4 286.048 317.592 286.048 328.728V350.488C286.048 361.624 283.424 369.837 278.176 375.128C272.971 380.376 264.757 383 253.536 383H222.688ZM228.064 372.248H253.536C258.997 372.248 263.307 371.587 266.464 370.264C269.664 368.899 271.925 366.637 273.248 363.48C274.613 360.28 275.296 355.949 275.296 350.488V328.728C275.296 323.309 274.613 319.021 273.248 315.864C271.925 312.664 269.664 310.381 266.464 309.016C263.307 307.651 258.997 306.968 253.536 306.968H228.064V372.248Z" fill="white"/>
<path d="M355.912 383C346.141 383 338.909 380.675 334.216 376.024C329.565 371.331 327.24 364.099 327.24 354.328V324.888C327.24 315.032 329.565 307.779 334.216 303.128C338.867 298.435 346.056 296.131 355.784 296.216H371.272C379.293 296.216 385.416 297.88 389.64 301.208C393.864 304.493 396.317 309.699 397 316.824C397.256 318.616 396.915 319.981 395.976 320.92C395.037 321.859 393.672 322.328 391.88 322.328C388.637 322.328 386.76 320.536 386.248 316.952C385.821 313.027 384.456 310.381 382.152 309.016C379.891 307.651 376.264 306.968 371.272 306.968H355.784C351.261 306.925 347.699 307.437 345.096 308.504C342.536 309.571 340.701 311.427 339.592 314.072C338.525 316.675 337.992 320.28 337.992 324.888V354.328C337.992 358.893 338.525 362.477 339.592 365.08C340.701 367.683 342.557 369.539 345.16 370.648C347.763 371.715 351.347 372.248 355.912 372.248H371.272C376.264 372.248 379.891 371.565 382.152 370.2C384.456 368.792 385.821 366.147 386.248 362.264C386.76 358.68 388.637 356.888 391.88 356.888C393.672 356.888 395.037 357.357 395.976 358.296C396.915 359.235 397.256 360.6 397 362.392C396.317 369.56 393.864 374.787 389.64 378.072C385.416 381.357 379.293 383 371.272 383H355.912Z" fill="white"/>
</svg>
